<?xml version="1.0" standalone="no"?>
<!DOCTYPE svg PUBLIC "-//W3C//DTD SVG 20010904//EN"
 "http://www.w3.org/TR/2001/REC-SVG-20010904/DTD/svg10.dtd">
<svg version="1.0" xmlns="http://www.w3.org/2000/svg"
 width="48.000000pt" height="48.000000pt" viewBox="0 0 48.000000 48.000000"
 preserveAspectRatio="xMidYMid meet">

<g transform="translate(0.000000,48.000000) scale(0.100000,-0.100000)"
fill="#fff" stroke="none">
<path d="M52 388 c-17 -17 -17 -279 0 -296 17 -17 318 -17 340 0 8 7 28 49 44
92 27 78 27 79 8 95 -10 9 -25 28 -31 44 -12 26 -15 27 -94 27 -72 0 -84 3
-111 25 -24 20 -40 25 -87 25 -31 0 -62 -5 -69 -12z m146 -43 c27 -22 39 -25
111 -25 65 0 81 -3 81 -15 0 -13 -22 -15 -139 -15 -148 0 -150 0 -169 -55 -9
-26 -11 -18 -11 53 l-1 82 49 0 c38 0 56 -6 79 -25z m229 -97 c-2 -7 -14 -41
-27 -75 l-23 -63 -154 0 c-120 0 -154 3 -150 13 2 6 14 40 27 75 l23 62 154 0
c120 0 154 -3 150 -12z"/>
</g>
</svg>
