<?xml version="1.0" standalone="no"?>
<!DOCTYPE svg PUBLIC "-//W3C//DTD SVG 20010904//EN"
 "http://www.w3.org/TR/2001/REC-SVG-20010904/DTD/svg10.dtd">
<svg version="1.0" xmlns="http://www.w3.org/2000/svg"
 width="24.000000pt" height="24.000000pt" viewBox="0 0 24.000000 24.000000"
 preserveAspectRatio="xMidYMid meet">

<g transform="translate(0.000000,24.000000) scale(0.100000,-0.100000)"
fill="#fff" stroke="none">
<path d="M20 125 l0 -85 100 0 100 0 0 75 0 75 -59 0 c-33 0 -63 5 -66 10 -3
6 -22 10 -41 10 l-34 0 0 -85z m65 55 c3 -5 31 -10 61 -10 l54 0 0 -55 0 -55
-80 0 -80 0 0 65 c0 58 2 65 19 65 11 0 23 -4 26 -10z"/>
</g>
</svg>
