<svg width="25" height="24" viewBox="0 0 25 24" fill="none" xmlns="http://www.w3.org/2000/svg">
<path fill-rule="evenodd" clip-rule="evenodd" d="M9.09178 20.1C8.74678 20.1 8.40178 19.965 8.13178 19.71C7.87989 19.457 7.73846 19.1145 7.73846 18.7575C7.73846 18.4005 7.87989 18.058 8.13178 17.805L13.9368 12L8.13178 6.21C7.87989 5.957 7.73846 5.61452 7.73846 5.2575C7.73846 4.90048 7.87989 4.558 8.13178 4.305C8.38478 4.0531 8.72726 3.91168 9.08428 3.91168C9.4413 3.91168 9.78378 4.0531 10.0368 4.305L16.7868 11.055C17.0387 11.308 17.1801 11.6505 17.1801 12.0075C17.1801 12.3645 17.0387 12.707 16.7868 12.96L10.0368 19.71C9.78178 19.965 9.43678 20.1 9.09178 20.1Z" fill="#fff"/>
</svg>
