<svg width="25" height="24" viewBox="0 0 25 24" fill="none" xmlns="http://www.w3.org/2000/svg">
<path fill-rule="evenodd" clip-rule="evenodd" d="M15.8418 20.1C15.6645 20.1001 15.489 20.0651 15.3253 19.9972C15.1616 19.9292 15.0129 19.8296 14.8878 19.704L8.13781 12.954C8.0124 12.8286 7.91293 12.6798 7.84505 12.516C7.77718 12.3521 7.74225 12.1765 7.74225 11.9992C7.74225 11.8219 7.77718 11.6463 7.84505 11.4825C7.91293 11.3187 8.0124 11.1698 8.13781 11.0445L14.8878 4.29448C15.0122 4.16475 15.1612 4.06117 15.3262 3.9898C15.4911 3.91843 15.6686 3.88071 15.8483 3.87886C16.028 3.877 16.2063 3.91105 16.3727 3.979C16.5391 4.04695 16.6902 4.14744 16.8172 4.27457C16.9443 4.4017 17.0446 4.55291 17.1125 4.71934C17.1803 4.88577 17.2142 5.06407 17.2122 5.24378C17.2102 5.42348 17.1723 5.60098 17.1008 5.76587C17.0293 5.93075 16.9256 6.0797 16.7958 6.20398L11.0013 12L16.7958 17.7945C16.9849 17.9832 17.1137 18.2238 17.166 18.4857C17.2183 18.7477 17.1917 19.0193 17.0895 19.2662C16.9874 19.513 16.8143 19.724 16.5922 19.8724C16.3701 20.0208 16.109 20.1 15.8418 20.1Z" fill="#fff"/>
</svg>
